<svg width="514" height="190" viewBox="0 0 514 190" fill="none" xmlns="http://www.w3.org/2000/svg">
<path d="M437.631 30.4998C451.938 27.0278 471.707 25.343 486.521 35.8618L486.533 35.8732L486.546 35.8846C490.387 38.5515 494.434 41.0471 498.662 43.3599C501.53 44.9646 506.049 49.3788 506.297 62.0961C506.502 73.62 505.141 81.2262 500.907 85.7546C496.829 90.106 489.25 92.4188 474.435 91.0254L472.457 96.239L472.469 96.2449L472.517 96.2792C472.56 96.3078 472.626 96.3476 472.717 96.4047C472.892 96.5189 473.153 96.6846 473.479 96.9016C474.145 97.3413 475.1 97.9753 476.25 98.7748C478.542 100.362 481.585 102.572 484.604 105.045C487.634 107.535 490.556 110.219 492.668 112.777C494.9 115.472 495.747 117.454 495.692 118.636C495.517 122.353 493.496 126.248 490.345 129.646C487.199 133.032 483.17 135.648 479.468 136.892L480.623 142.431H480.629H480.666C480.702 142.431 480.756 142.432 480.829 142.426C480.98 142.42 481.198 142.414 481.488 142.414C482.063 142.403 482.898 142.397 483.908 142.414C485.941 142.454 488.645 142.586 491.397 142.957C494.18 143.334 496.842 143.933 498.88 144.83C500.967 145.744 501.887 146.732 502.171 147.628C502.473 148.605 502.933 149.804 503.417 151.049C503.496 151.254 503.58 151.465 503.659 151.677C504.246 153.196 504.875 154.863 505.431 156.639C506.551 160.231 507.295 164.023 506.841 167.506C506.399 170.87 504.851 173.994 501.161 176.501C497.356 179.087 491.028 181.177 480.726 181.788C459.705 183.045 445.029 181.36 434.988 177.146C425.163 173.023 419.592 166.404 416.852 157.085C413.972 147.32 412.732 135.573 413.252 125.454C413.513 120.4 414.202 115.843 415.303 112.194C416.422 108.466 417.862 106.061 419.314 104.873L421.849 102.801L419.405 100.636V100.631L419.392 100.625C419.386 100.613 419.368 100.602 419.344 100.579C419.296 100.533 419.223 100.465 419.12 100.374C418.921 100.191 418.624 99.9052 418.249 99.534C417.493 98.7859 416.422 97.684 415.176 96.2678C412.69 93.4411 409.556 89.4152 406.931 84.6184C401.668 74.9962 398.668 62.7298 406.247 50.5778H406.253C412.164 41.0926 423.657 33.8919 437.631 30.4998Z" fill="black" stroke="black" stroke-width="6.22023"/>
<path d="M404.649 123.444L401.812 122.456L407.402 124.632C407.626 124.164 407.849 123.673 408.073 123.159C408.321 122.662 408.648 122.034 409.059 121.326C410.178 119.395 411.89 116.871 414.262 114.461C418.956 109.676 426.13 105.416 436.632 106.889C441.157 107.529 444.974 110.687 447.406 116.083C449.844 121.491 450.709 128.846 449.347 136.944C446.637 153.07 435.156 171.629 410.995 182.314C399.338 187.47 388.824 186.528 379.769 181.194C370.549 175.764 362.576 165.61 356.751 151.928C345.118 124.609 342.541 84.2987 354.755 43.9539C354.773 43.9139 354.797 43.8453 354.833 43.754C354.906 43.5712 355.021 43.2857 355.184 42.9203C355.505 42.195 356.001 41.1615 356.685 39.9565C358.058 37.5296 360.139 34.5257 363 32.0017C365.843 29.4948 369.376 27.5248 373.731 26.9765C378.075 26.434 383.574 27.2619 390.44 30.9223C396.937 34.3886 401.57 40.4647 404.674 48.2767C407.777 56.0829 409.259 65.4081 409.573 74.9675C410.166 93.2011 406.5 111.606 402.532 120.869C402.453 121.029 402.381 121.177 402.314 121.32C402.157 121.657 402.036 121.925 401.951 122.119C401.909 122.216 401.879 122.296 401.855 122.353C401.842 122.376 401.836 122.399 401.83 122.416L401.818 122.439V122.451H401.812C401.812 122.456 401.812 122.456 404.649 123.444Z" fill="black" stroke="black" stroke-width="6.22023"/>
<path d="M291.753 44.8958L291.759 44.89C291.765 44.8785 291.783 44.8614 291.801 44.8442C291.843 44.7985 291.916 44.7301 292.007 44.6387C292.194 44.456 292.479 44.1818 292.86 43.8335C293.622 43.1311 294.759 42.1318 296.235 40.9612C299.187 38.6199 303.458 35.6217 308.727 32.9949C319.271 27.7298 333.559 24.0522 349.348 29.7114C357.17 32.5095 361.658 36.6441 364.126 41.2068C366.631 45.8381 367.218 51.2001 366.655 56.6537C365.518 67.635 359.795 78.1253 357.708 81.3003C356.214 83.5731 355.609 86.5311 355.415 89.4035C355.216 92.3445 355.427 95.5423 355.851 98.5404C356.274 101.55 356.91 104.445 357.605 106.803C357.95 107.985 358.319 109.059 358.694 109.961C359.045 110.818 359.474 111.703 359.995 112.377C361.059 113.77 367.23 121.891 369.934 132.826C372.607 143.636 371.9 157.096 359.42 169.75C353.328 175.929 343.577 180.389 332.023 182.713C320.517 185.026 307.499 185.163 295.183 182.936C270.381 178.459 249.583 164.765 247.962 141.312C246.268 116.808 257.054 92.784 268.517 74.6817C274.222 65.6705 280.041 58.2127 284.427 53.0104C286.623 50.4121 288.456 48.3792 289.732 47.003C290.374 46.3177 290.876 45.7923 291.214 45.444C291.384 45.267 291.511 45.1357 291.595 45.05C291.638 45.01 291.668 44.9757 291.686 44.9586L291.71 44.9357L291.716 44.9301L291.734 44.9128L291.747 44.8958H291.753Z" fill="black" stroke="black" stroke-width="6.22023"/>
<path d="M206.318 49.8639L206.324 49.8583V49.8524C206.33 49.8467 206.343 49.8298 206.355 49.807C206.385 49.7613 206.427 49.6813 206.494 49.5842C206.621 49.3786 206.827 49.0702 207.093 48.6705C207.637 47.8767 208.466 46.729 209.567 45.3699C211.781 42.6403 215.096 39.0711 219.476 35.7019C228.217 28.9978 241.108 23.1617 258.209 26.2625C266.714 27.8044 272.364 31.1905 276.145 35.3592C279.956 39.5736 282.037 44.7816 283.011 50.1951C284.971 61.1022 282.309 72.2207 281.172 75.6128C280.325 78.1311 280.573 81.1462 281.184 83.9672C281.813 86.8681 282.914 89.9461 284.167 92.807C285.413 95.6794 286.846 98.3977 288.177 100.585C289.436 102.641 290.803 104.582 291.988 105.564C293.44 106.763 301.8 113.793 307.547 124.129C313.252 134.391 316.252 147.628 307.698 161.79C303.536 168.671 295.352 174.502 284.735 178.55C274.161 182.588 261.488 184.735 248.809 184.466C223.311 183.924 198.884 173.719 190.663 150.82C182.145 127.093 185.944 101.944 192.036 82.5223C195.073 72.8372 198.648 64.6599 201.467 58.9037C202.876 56.0313 204.092 53.7642 204.951 52.2281C205.381 51.4572 205.72 50.869 205.949 50.4806C206.064 50.2808 206.155 50.138 206.21 50.0409C206.24 49.9895 206.264 49.9553 206.276 49.9325L206.288 49.9096H206.294V49.904L206.306 49.8812L206.318 49.8639Z" fill="black" stroke="black" stroke-width="6.22023"/>
<path d="M93.8339 41.8178L93.84 41.7949L93.8521 41.7835V41.7779L93.8581 41.7606C93.8642 41.7435 93.8824 41.7094 93.9005 41.658C93.9429 41.5666 94.0093 41.418 94.1001 41.2239C94.2815 40.8413 94.5599 40.276 94.941 39.6022C95.6972 38.2431 96.8283 36.4786 98.3103 34.794C101.329 31.3676 105.334 28.7637 110.463 29.546C113.131 29.9572 116.059 31.3446 119.053 33.4346C122.024 35.5018 124.873 38.1287 127.377 40.7498C129.869 43.3653 131.975 45.9292 133.451 47.8423C134.189 48.7959 134.769 49.584 135.157 50.1265C135.356 50.4006 135.501 50.6119 135.604 50.7547C135.653 50.8232 135.689 50.8746 135.713 50.9089L135.737 50.949L135.743 50.9546L139.869 57.0362L141.26 49.9383L141.266 49.9268L141.272 49.8811C141.284 49.8411 141.297 49.7724 141.315 49.6867C141.357 49.504 141.412 49.2358 141.496 48.8932C141.66 48.1965 141.92 47.2027 142.271 46.0092C142.978 43.6165 144.073 40.493 145.604 37.4722C147.146 34.417 149.046 31.6645 151.272 29.8371C153.419 28.0726 155.779 27.2275 158.573 27.6558C161.634 28.1241 165.282 30.02 169.196 33.2579C173.061 36.45 176.945 40.7556 180.484 45.6381C187.604 55.4545 193.012 67.1553 194.204 76.0809C194.76 80.2324 196.333 86.6624 198.172 94.1889C198.529 95.6451 198.892 97.1354 199.261 98.6658C201.578 108.214 204.137 119.258 205.812 130.234C207.494 141.238 208.262 152.002 207.077 161.013C205.885 170.082 202.794 176.832 197.337 180.555C191.724 184.387 186.152 184.741 180.756 183.045C175.191 181.297 169.71 177.328 164.822 172.343C159.965 167.392 155.887 161.636 153.087 156.633C151.689 154.132 150.631 151.871 149.959 150.032C149.85 149.735 149.754 149.455 149.669 149.192C149.554 148.353 149.439 147.645 149.342 147.091C149.276 146.68 149.215 146.355 149.173 146.126C149.155 146.063 149.149 146.006 149.136 145.961C149.13 145.921 149.124 145.892 149.118 145.863L149.106 145.795L149.1 145.772V145.766V145.761C149.1 145.761 149.1 145.761 146.13 146.315L149.1 145.761L143.117 146.035C142.99 147.308 143.269 148.827 143.734 150.38C143.771 150.637 143.807 150.911 143.843 151.197C144.176 153.887 144.479 157.524 144.376 161.367C144.273 165.234 143.765 169.168 142.549 172.509C141.339 175.849 139.518 178.35 136.959 179.778C131.908 182.593 123.082 182.896 114.825 180.132C106.646 177.391 100.04 171.995 98.4918 164.485C97.2759 158.329 95.6003 152.236 93.477 146.229V146.217L93.4709 146.212C86.4174 126.59 75.7042 84.264 93.8339 41.8178Z" fill="black" stroke="black" stroke-width="6.22023"/>
<path d="M88.4892 99.3288L88.09 99.4258L87.6606 99.6999L84.4908 101.739L81.7686 103.486L83.8374 105.902C91.5805 114.907 95.7665 124.352 98.0169 131.553C99.136 135.151 99.7712 138.172 100.128 140.285C100.303 141.335 100.406 142.163 100.473 142.712C100.503 142.986 100.521 143.191 100.533 143.328C100.54 143.391 100.54 143.443 100.546 143.471V143.5L100.558 143.677L100.588 143.848C104.145 161.973 98.876 171.732 93.2925 177.003C90.4312 179.704 87.346 181.355 84.9808 182.325C83.8012 182.811 82.809 183.125 82.1254 183.313C81.7866 183.405 81.5265 183.467 81.3632 183.502C81.2785 183.519 81.2242 183.53 81.1879 183.542C81.1758 183.542 81.1637 183.542 81.1637 183.547C81.1637 183.547 81.1636 183.547 81.1576 183.547L81.0306 183.57L80.8915 183.605C72.6765 185.843 60.9348 186.294 51.0018 186.134C46.0838 186.06 41.6981 185.832 38.5465 185.632C36.9736 185.529 35.7032 185.432 34.8321 185.358C34.4026 185.323 34.0639 185.295 33.8401 185.272C33.7977 185.272 33.7553 185.266 33.719 185.266C33.6645 185.261 33.6222 185.255 33.5859 185.249L33.5255 185.244H33.5074L33.471 185.238H33.4407C20.6284 184.273 14.198 179.327 10.895 174.947C9.20729 172.703 8.26969 170.516 7.7555 168.9C7.50143 168.089 7.35622 167.438 7.27153 166.998C7.22918 166.781 7.20506 166.616 7.19296 166.519C7.19296 166.502 7.1869 166.484 7.1869 166.473V166.41C7.18085 166.296 7.18084 166.13 7.17479 165.908C7.16269 165.462 7.15055 164.811 7.13241 163.972C7.10216 162.299 7.06592 159.894 7.04172 156.971C6.99938 151.129 7.01745 143.237 7.26547 135.031C7.51954 126.808 7.99752 118.328 8.86257 111.281C9.29811 107.758 9.82433 104.645 10.4535 102.138C11.1007 99.5515 11.7843 97.884 12.3953 97.0332C13.8955 94.9317 15.4441 94.0522 16.8173 93.7039C18.251 93.3441 19.8178 93.4754 21.4148 93.9437C23.0118 94.4119 24.4696 95.1658 25.5585 95.8339C26.0908 96.1594 26.5204 96.4565 26.8047 96.662C26.9438 96.7648 27.0527 96.8506 27.1132 96.8962C27.1374 96.9134 27.1496 96.9247 27.1617 96.9361C27.1738 96.9418 27.1798 96.9474 27.1859 96.9531C27.1859 96.9531 27.1859 96.9533 27.198 96.9476L31.6623 93.19C31.6683 93.1843 31.6683 93.1844 31.6683 93.1844L31.6562 93.1671L31.6017 93.093C31.5533 93.0301 31.4869 92.9329 31.3901 92.8016C31.2026 92.5332 30.9303 92.1451 30.5855 91.6369C29.8898 90.6204 28.9038 89.1471 27.7545 87.3311C25.4436 83.6821 22.4916 78.674 19.8783 73.1976C17.259 67.6927 15.0328 61.8394 14.1012 56.4715C13.1575 51.0408 13.6112 46.5693 15.7284 43.4171L15.7345 43.4115V43.4056C19.0797 38.3975 25.4255 34.6515 32.6967 31.9333C39.8832 29.2493 47.5236 27.7305 52.8772 26.9196H52.8832H52.8953C58.2792 26.0687 63.8446 26.0686 69.2284 26.9137C77.2135 28.2271 82.0408 30.9568 84.8174 33.2067C86.2209 34.3431 87.1282 35.3825 87.6666 36.0963C87.8602 36.359 88.0114 36.5759 88.1143 36.7415C88.1385 36.987 88.1747 37.3069 88.211 37.701C88.3138 38.6889 88.4529 40.1165 88.6284 41.8754C88.9792 45.3931 89.4572 50.2411 89.9593 55.5405C90.9635 66.162 92.0705 78.5654 92.4939 85.8349C92.8932 92.7389 91.4172 96.1539 90.2618 97.7528C89.6811 98.5523 89.1244 98.969 88.8038 99.1632C88.6526 99.2545 88.5437 99.306 88.4892 99.3288Z" fill="black" stroke="black" stroke-width="6.22023"/>
<path d="M436.876 8.30856C451.382 4.78517 478.029 8.91402 488.337 14.1677C498.645 19.4157 497.514 18.8845 500.193 21.477C502.873 24.0696 509.062 29.1977 509.322 42.6174C509.739 65.625 504.234 77.3203 474.139 74.4479C474.139 74.4479 499.147 90.2033 498.711 99.3344C498.282 108.471 488.966 117.3 480.485 120.155C480.485 120.155 502.528 119.213 505.069 127.402C507.616 135.59 523.302 162.698 480.914 165.216C438.533 167.729 409.581 164.68 403.647 144.51C397.706 124.341 395.172 99.0772 403.647 92.1447C403.647 92.1447 386.993 56.3968 403.647 29.7116C410.071 19.3984 422.363 11.8377 436.876 8.30856Z" fill="white" stroke="black" stroke-width="6.22023" stroke-linecap="round" stroke-linejoin="round"/>
<path d="M464.218 125.02C464.218 125.02 467.369 121.856 480.484 120.12" stroke="black" stroke-width="6.22023" stroke-linecap="round" stroke-linejoin="round"/>
<path d="M458.779 60.1425C458.779 60.1425 460.896 70.0332 474.138 74.436" stroke="black" stroke-width="6.22023" stroke-linecap="round" stroke-linejoin="round"/>
<path d="M482.638 64.2146C482.638 64.2146 492.607 64.2146 498.493 46.3693" stroke="black" stroke-width="6.22023" stroke-linecap="round" stroke-linejoin="round"/>
<path d="M487.168 132.581C487.168 132.581 494.415 132.581 497.743 143.345" stroke="black" stroke-width="6.22023" stroke-linecap="round" stroke-linejoin="round"/>
<path d="M351.871 23.6698C351.871 23.6698 362.687 -6.58469 391.929 9.02215C421.172 24.629 413.556 85.5945 404.651 104.028C404.651 104.028 413.556 81.3345 437.081 84.6466C460.601 87.9644 462.506 143.259 412.285 165.473C362.058 187.687 327.075 105.444 351.871 23.6698Z" fill="white" stroke="black" stroke-width="6.22023" stroke-linecap="round" stroke-linejoin="round"/>
<path d="M385.257 21.0716C385.257 21.0716 393.792 20.8718 398.626 46.7633" stroke="black" stroke-width="6.22023" stroke-linecap="round" stroke-linejoin="round"/>
<path d="M429.132 93.3954C429.132 93.3954 443.439 94.098 441.521 106.153" stroke="black" stroke-width="6.22023" stroke-linecap="round" stroke-linejoin="round"/>
<path d="M404.651 104.023L398.36 127.419" stroke="black" stroke-width="6.22023" stroke-linecap="round" stroke-linejoin="round"/>
<path d="M270.666 35.0223C270.666 35.0223 294.591 5.43595 329.598 15.4236C364.605 25.417 349.264 63.4205 345.599 70.3988C341.939 77.377 348.242 95.2626 350.837 98.0722C353.433 100.882 380.352 130.359 356.814 158.912C333.276 187.459 246.318 186.271 237.244 135.961C228.17 85.6459 270.666 35.0223 270.666 35.0223Z" fill="white" stroke="black" stroke-width="6.22023" stroke-linecap="round" stroke-linejoin="round"/>
<path d="M208.707 40.3163C208.707 40.3163 227.382 8.70271 263.81 15.3041C300.239 21.9054 291.522 61.0453 289.084 68.3148C286.646 75.59 295.956 92.7274 299.017 95.2686C302.072 97.8155 333.813 124.506 315.35 155.052C296.894 185.597 210.438 192.639 192.828 143.591C175.219 94.5434 208.707 40.3163 208.707 40.3163Z" fill="white" stroke="black" stroke-width="6.22023" stroke-linecap="round" stroke-linejoin="round"/>
<path d="M200.996 125.842C200.996 125.842 210.373 166.136 247.328 167.689" stroke="black" stroke-width="6.22023" stroke-linecap="round" stroke-linejoin="round"/>
<path d="M291.316 81.9568C291.316 81.9568 249.303 78.936 250.761 108.568C252.219 138.205 283.319 145.532 299.385 130.256" stroke="black" stroke-width="6.22023" stroke-linecap="round" stroke-linejoin="round"/>
<path d="M240.03 96.8729C240.03 96.8729 259.279 108.345 247.809 137.029" stroke="black" stroke-width="6.22023" stroke-linecap="round" stroke-linejoin="round"/>
<path d="M341.878 83.7329C341.878 83.7329 304.324 77.1716 300.7 106.701C297.077 136.23 326.67 146.44 345.223 132.809" fill="white"/>
<path d="M341.878 83.7329C341.878 83.7329 304.324 77.1716 300.7 106.701C297.077 136.23 326.67 146.44 345.223 132.809" stroke="black" stroke-width="6.22023" stroke-linecap="round" stroke-linejoin="round"/>
<path d="M91.024 21.3285C91.024 21.3285 97.5935 5.25338 110.944 7.30345C124.295 9.34782 138.287 29.9969 138.287 29.9969C138.287 29.9969 143.58 3.0548 159.054 5.41324C174.528 7.77168 194.66 37.238 197.201 56.3054C199.748 75.3728 224.961 145.801 199.107 163.446C173.246 181.086 145.274 135.088 146.127 126.899C146.127 126.899 152.055 155.257 138.493 162.818C126.322 169.602 99.1602 163.332 95.5186 145.589C94.3269 139.57 92.6874 133.597 90.6065 127.71C83.4623 107.854 72.495 64.7113 91.024 21.3285Z" fill="white" stroke="black" stroke-width="6.22023" stroke-linecap="round" stroke-linejoin="round"/>
<path d="M138.289 29.9972C138.289 29.9972 146.631 54.4156 145.742 69.0345" stroke="black" stroke-width="6.22023" stroke-linecap="round" stroke-linejoin="round"/>
<path d="M178.559 42.6002C178.559 42.6002 193.81 72.3747 196.35 97.4267" stroke="black" stroke-width="6.22023" stroke-linecap="round" stroke-linejoin="round"/>
<path d="M89.3613 82.6366C89.3613 82.6366 96.3663 80.9004 95.5134 66.2473C94.6604 51.5941 91.0671 16.4632 91.0671 16.4632C91.0671 16.4632 86.7721 7.46902 69.7373 4.67657C64.0207 3.77431 58.1106 3.77431 52.3941 4.67657C41.4751 6.33262 20.8893 10.9011 13.1765 22.4592C2.37247 38.5343 29.177 75.3729 29.177 75.3729C29.177 75.3729 17.3082 65.6077 9.88572 76.0009C2.46325 86.394 4.16918 147.223 4.16918 147.223C4.16918 147.223 5.86297 166.598 33.1997 168.648C33.1997 168.648 64.3595 171.641 81.7331 166.912C81.7331 166.912 110.987 161.71 103.565 123.901C103.565 123.901 102.295 103.423 86.1915 84.6637L89.3613 82.6366Z" fill="white" stroke="black" stroke-width="6.22023" stroke-linecap="round" stroke-linejoin="round"/>
<path d="M84.5466 41.8575L82.2117 22.9272" stroke="black" stroke-width="6.22023" stroke-linecap="round" stroke-linejoin="round"/>
<path d="M37.8463 101.927C37.8463 101.927 34.9306 97.3126 37.8463 89.5063C40.7621 81.7 27.9255 74.6018 27.9255 74.6018" stroke="black" stroke-width="6.22023" stroke-linecap="round" stroke-linejoin="round"/>
<path d="M90.3763 134.237C90.3763 134.237 96.1049 155.275 77.6606 157.165" stroke="black" stroke-width="6.22023" stroke-linecap="round" stroke-linejoin="round"/>
<path d="M84.8121 82.9969C84.8121 82.9969 63.809 73.0776 58.3223 33.0583" stroke="black" stroke-width="6.22023" stroke-linecap="round" stroke-linejoin="round"/>
</svg>
