<svg width="213" height="161" viewBox="0 0 213 161" fill="none" xmlns="http://www.w3.org/2000/svg">
<path d="M63.2952 107.068C53.5736 109.009 42.3711 96.0907 35.1441 76.3058C34.6041 74.7849 34.5488 73.1363 34.9857 71.5841C35.4229 70.0293 36.3305 68.6518 37.5843 67.637L49.7693 57.8125C50.2827 57.4003 50.6826 56.8602 50.9315 56.2497C51.1801 55.6393 51.2701 54.9741 51.1921 54.3193C51.1141 53.6645 50.8712 53.041 50.4859 52.5036C50.1009 51.9688 49.5859 51.5383 48.9895 51.2565L32.2909 43.4616C30.968 42.8486 29.8449 41.8755 29.0505 40.6546C28.2562 39.4337 27.8229 38.0119 27.8004 36.5536C27.551 17.181 32.8523 2.55629 42.0437 0.693642C54.4705 -1.79511 69.3292 19.9958 75.1841 49.3548C81.0389 78.7137 75.722 104.582 63.2952 107.068Z" fill="black"/>
<path d="M158.718 107.068C148.996 109.009 137.793 96.0907 130.566 76.3058C130.026 74.7849 129.971 73.1363 130.408 71.5841C130.845 70.0293 131.753 68.6518 133.007 67.637L145.192 57.8125C145.705 57.4003 146.105 56.8602 146.354 56.2497C146.603 55.6393 146.692 54.9741 146.614 54.3193C146.536 53.6645 146.294 53.041 145.908 52.5036C145.523 51.9688 145.008 51.5383 144.412 51.2565L127.713 43.4616C126.39 42.8486 125.267 41.8755 124.473 40.6546C123.679 39.4337 123.245 38.0119 123.223 36.5536C122.973 17.181 128.275 2.55629 137.466 0.693642C149.893 -1.79511 164.751 19.9958 170.607 49.3548C176.462 78.7137 171.145 104.582 158.718 107.068Z" fill="black"/>
<path d="M98.9463 102.024C98.9463 102.024 113.72 86.752 120.845 107.257" stroke="black" stroke-width="5.21752" stroke-linecap="round" stroke-linejoin="round"/>
<path d="M37.46 104.52C37.46 104.52 46.4876 123.603 27.3252 134.424" stroke="black" stroke-width="5.21752" stroke-linecap="round" stroke-linejoin="round"/>
<path d="M38.2388 122.458C38.2388 122.458 105.9 175.643 176.088 117.133" stroke="black" stroke-width="5.21752" stroke-miterlimit="10"/>
<path d="M172.977 102.384C172.977 102.384 176.438 110.554 175.979 115.636C175.541 120.454 182.924 124.78 182.924 124.78" stroke="black" stroke-width="5.21752" stroke-miterlimit="10" stroke-linecap="round"/>
<path d="M90.7134 154.554C90.7134 154.554 103.265 163.058 125.327 153.656" stroke="black" stroke-width="5.21752" stroke-miterlimit="10" stroke-linecap="round"/>
<path d="M191.992 115.933C194.186 115.933 195.967 114.151 195.967 111.957C195.967 109.76 194.186 107.981 191.992 107.981C189.795 107.981 188.016 109.76 188.016 111.957C188.016 114.151 189.795 115.933 191.992 115.933Z" fill="black"/>
<path d="M21.1974 117.71C23.3932 117.71 25.1735 115.93 25.1735 113.734C25.1735 111.537 23.3932 109.758 21.1974 109.758C19.0017 109.758 17.2214 111.537 17.2214 113.734C17.2214 115.93 19.0017 117.71 21.1974 117.71Z" fill="black"/>
<path d="M16.0053 101.838C18.2013 101.838 19.9813 100.056 19.9813 97.8619C19.9813 95.6653 18.2013 93.8861 16.0053 93.8861C13.8095 93.8861 12.0295 95.6653 12.0295 97.8619C12.0295 100.056 13.8095 101.838 16.0053 101.838Z" fill="black"/>
<path d="M3.97601 113.361C6.1718 113.361 7.95175 111.579 7.95175 109.383C7.95175 107.189 6.1718 105.407 3.97601 105.407C1.77995 105.407 0 107.189 0 109.383C0 111.579 1.77995 113.361 3.97601 113.361Z" fill="black"/>
<path d="M203.794 104.434C205.99 104.434 207.77 102.652 207.77 100.458C207.77 98.2613 205.99 96.4822 203.794 96.4822C201.597 96.4822 199.818 98.2613 199.818 100.458C199.818 102.652 201.597 104.434 203.794 104.434Z" fill="black"/>
<path d="M209.024 120.266C211.221 120.266 213 118.487 213 116.29C213 114.094 211.221 112.315 209.024 112.315C206.83 112.315 205.049 114.094 205.049 116.29C205.049 118.487 206.83 120.266 209.024 120.266Z" fill="black"/>
</svg>
