<svg width="300" height="296" viewBox="0 0 300 296" fill="none" xmlns="http://www.w3.org/2000/svg">
<g filter="url(#filter0_d_403_4257)">
<path d="M224.733 47.1185C224.733 47.1185 219.033 6.04852 153.838 4.02491C153.838 4.02491 100.418 1.59659 84.9318 44.6902L81.4455 47.1185C81.4455 47.1185 54.9518 34.7763 32.6489 61.4843C32.6489 61.4843 18.5235 79.3886 27.1372 104.678C27.1372 104.678 -6.88553 121.016 15.7976 156.724C15.7976 156.724 47.6389 193.932 96.9279 159.267L102.84 154.414C102.84 154.414 119.611 174.094 154.65 173.024C154.65 173.024 180.824 174.509 215.135 150.772C215.539 154.99 217.428 158.963 220.514 162.082C223.601 165.201 227.707 167.288 232.202 168.019C241.256 169.475 253.865 170.715 272.934 161.881C286.162 155.751 294.368 139.737 291.39 126.299C291.322 126.006 291.254 125.713 291.178 125.416C291.178 125.416 289.725 110.563 273.73 102.766C273.73 102.766 280.855 71.7435 254.685 55.6957C254.685 55.6957 243.478 47.7349 227.067 49.4912L224.733 47.1185Z" fill="black"/>
<path d="M224.734 47.1185C224.734 47.1185 219.034 6.04852 153.839 4.02491C153.839 4.02491 100.419 1.59659 84.9324 44.6902L81.4461 47.1185C81.4461 47.1185 54.9525 34.7763 32.6496 61.4843C32.6496 61.4843 18.5241 79.3886 27.1379 104.678C27.1379 104.678 -6.88491 121.016 15.7983 156.724C15.7983 156.724 47.6395 193.932 96.9285 159.267L102.84 154.414C102.84 154.414 119.612 174.094 154.651 173.024C154.651 173.024 180.825 174.509 215.135 150.772C215.552 155.001 217.461 158.985 220.563 162.108C223.669 165.227 227.796 167.314 232.307 168.038C241.349 169.489 253.793 171.554 272.786 162.754C286.019 156.624 294.368 139.733 291.39 126.299C291.322 126.006 291.254 125.713 291.178 125.416C291.178 125.416 289.725 110.563 273.731 102.766C273.731 102.766 280.855 71.7435 254.686 55.6957C254.686 55.6957 244.891 48.7337 230.182 49.2684C229.161 49.3018 228.144 49.1273 227.204 48.756C226.263 48.3885 225.418 47.8315 224.734 47.1298V47.1185Z" stroke="#E5E5E5" stroke-width="6.68155" stroke-miterlimit="10"/>
<path d="M50.2247 103.545C42.1793 97.4373 26.9852 100.285 22.6543 109.219L22.6183 109.297C22.6023 109.33 22.6023 109.371 22.6103 109.404C22.6183 109.441 22.6422 109.475 22.6703 109.497C22.7023 109.523 22.7383 109.538 22.7783 109.538C22.8184 109.542 22.8584 109.534 22.8944 109.516C23.791 109.003 25.0119 108.198 25.9405 107.778C31.144 105.071 37.0839 103.764 43.0119 103.571C44.0486 103.571 45.5656 103.538 46.5862 103.597C47.775 103.638 48.9639 103.738 50.1407 103.905C50.1807 103.913 50.2207 103.905 50.2568 103.887C50.2928 103.868 50.3208 103.842 50.3368 103.809C50.3568 103.775 50.3608 103.738 50.3528 103.701C50.3448 103.664 50.3248 103.63 50.2967 103.605L50.2247 103.545Z" fill="#E9F8F7"/>
<path d="M281.175 108.732C274.695 97.5746 255.634 93.3603 244.502 100.842C244.394 100.898 244.306 101.024 244.398 101.132C244.422 101.158 244.45 101.18 244.486 101.191C244.518 101.206 244.558 101.21 244.594 101.202C246.168 100.898 247.757 100.671 249.354 100.527C258.928 99.5389 268.767 101.834 276.952 106.467C278.333 107.225 279.658 108.068 280.911 108.996C280.947 109.018 280.987 109.029 281.031 109.029C281.071 109.029 281.111 109.015 281.147 108.992C281.179 108.966 281.203 108.933 281.215 108.896C281.227 108.859 281.223 108.818 281.207 108.781L281.175 108.717V108.732Z" fill="#E9F8F7"/>
<path d="M89.1427 38.6753C88.6263 39.3734 88.0539 40.0342 87.4375 40.658C85.5483 42.6816 83.9432 44.9169 82.6664 47.3156C77.7231 56.3086 78.8518 68.5504 86.9212 75.724C87.6417 76.3738 88.4142 76.9716 89.2307 77.51C89.2707 77.5397 89.3228 77.5508 89.3748 77.5433C89.4269 77.5359 89.4709 77.5099 89.5029 77.4728C89.5229 77.4431 89.5349 77.4061 89.5349 77.3689C89.5349 77.3355 89.5229 77.2984 89.5029 77.2687C88.5263 75.8391 87.6577 74.3502 86.8932 72.813C81.9178 63.419 83.1146 52.8405 87.6537 43.5133L88.7144 41.1629C89.0506 40.3349 89.4749 39.5776 89.5149 38.6604C89.5149 38.6382 89.5109 38.6158 89.5029 38.5935C89.4949 38.5713 89.4829 38.5527 89.4669 38.5379C89.4469 38.523 89.4269 38.5081 89.4068 38.5007C89.3828 38.4896 89.3588 38.4858 89.3348 38.4858C89.2147 38.4858 89.1587 38.5787 89.1147 38.6641L89.1427 38.6753Z" fill="#E9F8F7"/>
<path d="M220.944 37.008C220.847 38.9574 221.364 40.695 221.692 42.5404C222.709 47.2671 223.93 52.7253 224.354 57.3926C225.062 64.2543 224.174 70.3215 222.601 77.2761V77.3428C222.593 77.3911 222.601 77.4394 222.633 77.4802C222.661 77.5173 222.705 77.5471 222.757 77.5545C222.797 77.562 222.837 77.5582 222.873 77.5397C222.909 77.5248 222.937 77.5026 222.957 77.4692L223.701 76.3291C224.134 75.7016 224.698 74.6583 225.082 73.99C230.602 63.5192 228.801 51.9901 223.697 41.7273C223.117 40.554 222.445 39.3064 221.852 38.1368C221.652 37.7544 221.484 37.3534 221.356 36.9449C221.344 36.8967 221.312 36.8558 221.268 36.8298C221.22 36.8038 221.168 36.7964 221.116 36.8075C221.068 36.8186 221.028 36.8484 221 36.8818C220.972 36.919 220.96 36.9635 220.96 37.008H220.944Z" fill="#E9F8F7"/>
<path d="M161.779 100.931C166.766 101.856 172.518 95.703 176.229 86.2793C176.509 85.5553 176.541 84.7681 176.317 84.0292C176.093 83.2903 175.624 82.6331 174.98 82.1504L168.724 77.4719C168.46 77.2751 168.256 77.0189 168.127 76.7293C167.999 76.436 167.955 76.1204 167.995 75.8085C168.031 75.4966 168.159 75.1995 168.356 74.9433C168.552 74.6871 168.816 74.483 169.124 74.3494L177.698 70.6363C178.378 70.343 178.951 69.8825 179.359 69.2996C179.767 68.7166 179.987 68.0408 179.999 67.3464C180.127 58.1195 177.41 51.1538 172.686 50.2664C166.306 49.082 158.677 59.4599 155.671 73.4432C152.665 87.4265 155.395 99.7428 161.779 100.931Z" fill="#F6F6F6"/>
<path d="M112.787 100.931C117.774 101.856 123.526 95.703 127.236 86.2793C127.517 85.5553 127.549 84.7681 127.324 84.0292C127.1 83.2903 126.632 82.6331 125.988 82.1504L119.731 77.4719C119.467 77.2751 119.263 77.0189 119.135 76.7293C119.007 76.436 118.959 76.1204 118.999 75.8085C119.039 75.4966 119.167 75.1995 119.363 74.9433C119.559 74.6871 119.823 74.483 120.132 74.3494L128.705 70.6363C129.386 70.343 129.958 69.8825 130.366 69.2996C130.775 68.7166 130.995 68.0408 131.007 67.3464C131.135 58.1195 128.417 51.1538 123.694 50.2664C117.314 49.082 109.685 59.4599 106.679 73.4432C103.673 87.4265 106.402 99.7428 112.787 100.931Z" fill="#F6F6F6"/>
<path d="M143.475 98.5289C143.475 98.5289 135.169 90.2748 132.227 101.02" stroke="#E5E5E5" stroke-width="5.87308" stroke-linecap="round" stroke-linejoin="round"/>
<path d="M175.045 99.717C175.045 99.717 170.409 108.807 180.248 113.96" stroke="#E9F8F7" stroke-width="5.87308" stroke-linecap="round" stroke-linejoin="round"/>
<path d="M174.64 108.261C174.64 108.261 139.905 133.592 103.869 105.726" stroke="#E5E5E5" stroke-width="5.87308" stroke-miterlimit="10"/>
<path d="M105.465 98.6995C105.465 98.6995 103.688 102.591 103.924 105.012C104.148 107.306 100.358 109.367 100.358 109.367" stroke="#E9F8F7" stroke-width="5.87308" stroke-miterlimit="10" stroke-linecap="round"/>
<path d="M147.698 125C147.698 125 141.253 129.051 129.93 124.573" stroke="#E5E5E5" stroke-width="5.47887" stroke-miterlimit="10" stroke-linecap="round"/>
<path d="M95.6991 105.154C94.5704 105.154 93.6578 104.307 93.6578 103.26C93.6578 102.213 94.5704 101.366 95.6991 101.366C96.8279 101.366 97.7405 102.213 97.7405 103.26C97.7405 104.307 96.8279 105.154 95.6991 105.154Z" fill="#E9F8F7"/>
<path d="M183.39 105.999C182.261 105.999 181.349 105.152 181.349 104.105C181.349 103.058 182.261 102.212 183.39 102.212C184.519 102.212 185.431 103.058 185.431 104.105C185.431 105.152 184.519 105.999 183.39 105.999Z" fill="#E9F8F7"/>
<path d="M186.056 98.4409C184.927 98.4409 184.014 97.5943 184.014 96.5473C184.014 95.5002 184.927 94.6536 186.056 94.6536C187.184 94.6536 188.097 95.5002 188.097 96.5473C188.097 97.5943 187.184 98.4409 186.056 98.4409Z" fill="#E9F8F7"/>
<path d="M192.231 103.928C191.103 103.928 190.19 103.082 190.19 102.035C190.19 100.988 191.103 100.141 192.231 100.141C193.36 100.141 194.273 100.988 194.273 102.035C194.273 103.082 193.36 103.928 192.231 103.928Z" fill="#E9F8F7"/>
<path d="M89.6388 99.6763C88.51 99.6763 87.5974 98.8297 87.5974 97.7826C87.5974 96.7355 88.51 95.8889 89.6388 95.8889C90.7675 95.8889 91.6802 96.7355 91.6802 97.7826C91.6802 98.8297 90.7675 99.6763 89.6388 99.6763Z" fill="#E9F8F7"/>
<path d="M86.9528 107.218C85.824 107.218 84.9114 106.371 84.9114 105.324C84.9114 104.277 85.824 103.43 86.9528 103.43C88.0815 103.43 88.9941 104.277 88.9941 105.324C88.9941 106.371 88.0815 107.218 86.9528 107.218Z" fill="#E9F8F7"/>
<path d="M202.09 158.737C205.412 170.451 214.25 189.555 222.792 198.723C236.221 211.689 250.434 227.38 250.298 246.339C250.114 256.163 240.327 265.992 228.968 264.856C227.347 264.707 224.721 262.873 223.588 263.266C209.579 287.754 184.042 290.175 161.979 272.519C161.979 272.519 140.813 286.18 120.563 272.519C120.563 272.519 71.7908 296.851 56.6046 255.874C39.0449 198.062 119.21 226.66 110.052 161.562" fill="black"/>
<path d="M202.09 158.737C205.412 170.451 214.25 189.555 222.792 198.723C236.221 211.689 250.434 227.38 250.298 246.339C250.114 256.163 240.327 265.992 228.968 264.856C227.347 264.707 224.721 262.873 223.588 263.266C209.579 287.754 184.042 290.175 161.979 272.519C161.979 272.519 140.813 286.18 120.563 272.519C120.563 272.519 71.7908 296.851 56.6046 255.874C39.0449 198.062 119.21 226.66 110.052 161.562" stroke="#E5E5E5" stroke-width="6.68155" stroke-miterlimit="10"/>
<path d="M131.719 254.373C127.924 260.515 125.715 266.934 119.427 270.933C117.533 272.166 115.176 273.106 112.358 274.275L112.33 274.646C121.86 275.489 128.465 270.347 130.934 262.022C131.719 259.534 132.123 256.957 132.135 254.366L131.719 254.373Z" fill="#E9F8F7"/>
<path d="M195.774 218.428C182.637 213.664 165.906 216.337 157.825 227.826C155.127 231.557 153.558 235.794 152.673 240.164C150.047 251.908 152.393 264.718 162.043 273.243C166.138 276.812 171.141 279.611 176.617 280.84L176.749 280.488C174.744 279.753 172.823 278.828 171.017 277.729C165.594 274.48 161.055 269.872 158.373 264.406C153.242 254.244 154.771 239.28 161.139 229.834C168.288 219.297 183.266 216.764 195.686 218.788L195.774 218.417V218.428Z" fill="#E9F8F7"/>
<path d="M216.756 270.287C219.338 269.867 221.496 268.319 223.129 266.492C227.932 261.053 227.792 251.974 221.868 247.292L221.468 247.403C222.08 249.353 222.484 251.358 222.668 253.381C223.169 258.45 221.724 263.518 218.59 267.691C217.977 268.523 217.277 269.295 216.5 270.001L216.756 270.287Z" fill="#E9F8F7"/>
<path d="M223.704 136.897C212.533 157.048 194.997 159.547 172.718 161.247C172.686 161.244 172.658 161.247 172.63 161.258C172.602 161.266 172.574 161.281 172.554 161.299C172.53 161.322 172.514 161.344 172.502 161.37C172.494 161.396 172.49 161.425 172.49 161.451C172.494 161.492 172.514 161.529 172.546 161.559C172.574 161.589 172.614 161.608 172.658 161.615C176.629 162.228 180.644 162.569 184.666 162.643C196.81 162.77 209.315 159.409 217.184 150.342C220.642 146.484 223.02 141.891 224.109 136.975C224.113 136.953 224.113 136.927 224.109 136.905C224.105 136.882 224.093 136.86 224.081 136.841C224.065 136.819 224.044 136.804 224.024 136.793C224 136.778 223.976 136.771 223.952 136.767C223.9 136.76 223.848 136.771 223.804 136.801C223.76 136.827 223.728 136.868 223.716 136.916L223.704 136.897Z" fill="#E9F8F7"/>
<path d="M94.8467 139.818C94.8708 139.874 94.8068 139.948 94.7267 139.978C94.6747 139.997 94.6186 139.997 94.5666 139.978C94.5386 139.978 94.5425 139.978 94.5385 139.978C94.5345 139.978 94.5385 140.004 94.5385 140.026L94.5626 140.171L94.6186 140.476C96.3798 151.269 106.819 164.759 119.743 164.261C121.729 164.157 123.642 163.56 125.291 162.527C125.327 162.505 125.351 162.468 125.363 162.431C125.375 162.39 125.371 162.349 125.355 162.312C125.339 162.271 125.307 162.241 125.267 162.223C125.227 162.204 125.183 162.2 125.139 162.208C123.462 162.512 121.737 162.535 120.052 162.275C108.94 160.533 100.623 148.514 95.199 140.149C95.0909 139.963 94.9588 139.792 94.7987 139.644L94.7507 139.621C94.7067 139.61 94.6626 139.61 94.6186 139.621C94.5826 139.633 94.5506 139.651 94.5226 139.677C94.4985 139.7 94.4785 139.733 94.4705 139.766C94.4625 139.815 94.4745 139.866 94.5025 139.907C94.5345 139.948 94.5826 139.978 94.6346 139.985C94.6866 139.993 94.7427 139.982 94.7867 139.956C94.8307 139.926 94.8628 139.881 94.8708 139.833L94.8467 139.818Z" fill="#E9F8F7"/>
<path d="M110.185 222.159C108.672 219.407 106.022 217.38 103.188 215.846C96.0794 212.133 86.8852 211.903 79.6524 215.453C78.1994 216.155 76.8625 217.038 75.6777 218.085L75.8058 218.438C77.9433 217.837 80.1207 217.361 82.3222 217.016C90.3556 215.765 98.8733 216.808 106.134 220.298C107.463 220.907 108.732 221.624 109.925 222.437L110.185 222.151V222.159Z" fill="#E9F8F7"/>
<path d="M118.258 241.574C115.056 232.225 105.225 225.419 94.8544 224.012C90.2794 223.388 85.6123 223.685 81.1693 224.888C76.7303 226.091 72.6236 228.17 69.1292 230.981L69.2973 231.319C70.354 230.922 71.4068 230.506 72.4675 230.12C74.6049 229.384 76.7823 228.764 78.9958 228.263C91.4682 225.337 104.389 228.456 113.487 236.959C115.128 238.418 116.601 240.03 117.89 241.764L118.23 241.571L118.258 241.574Z" fill="#E9F8F7"/>
<path d="M210.456 239.251C204.989 232.229 196.207 226.626 186.973 224.955C177.442 223.277 168.62 227.001 164.538 235.255C162.832 238.727 161.98 242.507 162.04 246.324L162.44 246.421C163.413 242.967 164.906 239.663 166.879 236.599C174.008 225.832 186.364 226.972 197.227 231.902C201.839 234 206.193 236.559 210.208 239.533L210.468 239.251H210.456Z" fill="#E9F8F7"/>
<path d="M110.781 170.796C110.921 173.306 110.48 175.957 110.324 178.33C75.2129 181.036 85.0715 186.127 116.709 189.885C140.12 193.048 186.431 191.879 207.657 188.812C234.475 184.939 235.536 180.205 209.631 177.951C207.513 174.743 207.381 173.172 206.409 170.796C231.693 173.258 246.363 178.504 246.363 183.621C246.363 188.039 232.69 194.893 212.989 198.948C185.927 205.127 139.996 205.851 111.401 200.433C87.1969 196.375 73.3956 188.748 73.3956 183.758C73.3956 178.255 82.4217 173.117 110.781 170.796Z" fill="black" stroke="#E5E5E5" stroke-width="5.55905" stroke-miterlimit="10"/>
</g>
<defs>
<filter id="filter0_d_403_4257" x="0.659912" y="0.65918" width="298.675" height="294.683" filterUnits="userSpaceOnUse" color-interpolation-filters="sRGB">
<feFlood flood-opacity="0" result="BackgroundImageFix"/>
<feColorMatrix in="SourceAlpha" type="matrix" values="0 0 0 0 0 0 0 0 0 0 0 0 0 0 0 0 0 0 127 0" result="hardAlpha"/>
<feOffset dy="4"/>
<feGaussianBlur stdDeviation="2"/>
<feComposite in2="hardAlpha" operator="out"/>
<feColorMatrix type="matrix" values="0 0 0 0 0 0 0 0 0 0 0 0 0 0 0 0 0 0 0.25 0"/>
<feBlend mode="normal" in2="BackgroundImageFix" result="effect1_dropShadow_403_4257"/>
<feBlend mode="normal" in="SourceGraphic" in2="effect1_dropShadow_403_4257" result="shape"/>
</filter>
</defs>
</svg>
