<svg width="47" height="48" viewBox="0 0 47 48" fill="none" xmlns="http://www.w3.org/2000/svg">
<path d="M39.6114 11.9371C38.682 11.0059 37.5782 10.2673 36.363 9.76333C35.1478 9.25938 33.8451 9 32.5292 9C31.2133 9 29.9101 9.25938 28.6939 9.76333C27.4778 10.2673 26.3726 11.0059 25.4415 11.9371L23.5091 13.8686L21.5803 11.9371C19.703 10.0571 17.1555 9.00097 14.4981 9.00097C11.8407 9.00097 9.29119 10.0571 7.41037 11.9371C5.52956 13.817 4.47152 16.3667 4.46902 19.0254C4.46652 21.684 5.51976 24.2338 7.39704 26.1137L9.32582 28.0452L13.6327 31.733C18.6247 36.0075 25.8839 36.3474 31.2611 32.5583L37.6656 28.0452L39.598 26.1137C40.5296 25.183 41.2689 24.078 41.7738 22.8617C42.2786 21.6455 42.5391 20.3419 42.5404 19.0254C42.5416 17.7089 42.2836 16.4053 41.781 15.189C41.2784 13.9728 40.5412 12.8678 39.6114 11.9371Z" fill="url(#paint0_linear_1065_1027)" stroke="black" stroke-linecap="round" stroke-linejoin="round"/>
<defs>
<linearGradient id="paint0_linear_1065_1027" x1="4.61376" y1="24.0004" x2="43.0498" y2="24.0365" gradientUnits="userSpaceOnUse">
<stop offset="0.305384" stop-color="#CBCCCD"/>
<stop offset="0.492621" stop-color="#E3EAEF"/>
<stop offset="0.695462" stop-color="#CBCCCD"/>
</linearGradient>
</defs>
</svg>
